<svg id="Layer_1" data-name="Layer 1" xmlns="http://www.w3.org/2000/svg" viewBox="0 0 257.5 184.83"><defs><style>.cls-1{fill:#fff;}.cls-2{fill:none;stroke:#000;stroke-miterlimit:10;stroke-width:4px;}</style></defs><title>clear-all</title><path d="M200,2.17V62.83a12.34,12.34,0,0,0-4-.66,12.52,12.52,0,0,0-6,1.53v-55H9v110H136.16a12.34,12.34,0,0,0-.66,4,12.52,12.52,0,0,0,1.53,6H2.5a3.5,3.5,0,0,1-3.5-3.5V2.17a3.5,3.5,0,0,1,3.5-3.5h194A3.5,3.5,0,0,1,200,2.17Z" transform="translate(1 1.33)"/><circle cx="162.06" cy="88.73" r="12.5" transform="translate(-14.27 141.91) rotate(-45)"/><path class="cls-1" d="M121,60.67A27.29,27.29,0,0,1,120.5,71L83,79.95c-4.45-10,8.52-29.33,18-39.28l1.93-2h0a33.62,33.62,0,0,1,10.06,7A27.12,27.12,0,0,1,121,60.67Z" transform="translate(1 1.33)"/><path class="cls-1" d="M83,79.95,120.5,71a20.16,20.16,0,0,1-4.5,8.63c-8.77,9.75-26.63,9.13-32,2A8.48,8.48,0,0,1,83,79.95Z" transform="translate(1 1.33)"/><path class="cls-2" d="M102.94,38.65C111.28,30,127.55,15,148,19.67c16.2,3.7,29,18.39,33,37" transform="translate(1 1.33)"/><path class="cls-2" d="M21,94.67c7.46-33.56,30.05-57.68,55-60,1.93-.18,15-1.53,26.93,4h0a33.62,33.62,0,0,1,10.06,7,27.12,27.12,0,0,1,8,15A27.29,27.29,0,0,1,120.5,71a20.16,20.16,0,0,1-4.5,8.63c-8.77,9.75-26.63,9.13-32,2a8.48,8.48,0,0,1-1-1.72c-4.45-10,8.52-29.33,18-39.28l1.93-2" transform="translate(1 1.33)"/><circle cx="162.06" cy="156.94" r="12.5" transform="translate(-62.51 161.89) rotate(-45)"/><circle cx="197" cy="172.33" r="12.5"/><circle cx="229.94" cy="156.94" r="12.5" transform="translate(-42.63 209.89) rotate(-45)"/><circle cx="245" cy="124.33" r="12.5"/><circle cx="229.94" cy="89.06" r="12.5" transform="translate(5.37 190.01) rotate(-45)"/><circle cx="197.5" cy="75.83" r="12.5"/><circle cx="148.5" cy="123.83" r="12.5"/></svg>